<?xml version="1.0" standalone="no"?>
<!DOCTYPE svg PUBLIC "-//W3C//DTD SVG 20010904//EN"
 "http://www.w3.org/TR/2001/REC-SVG-20010904/DTD/svg10.dtd">
<svg version="1.0" xmlns="http://www.w3.org/2000/svg"
 width="800.000000pt" height="368.000000pt" viewBox="0 0 800.000000 368.000000"
 preserveAspectRatio="xMidYMid meet">

<g transform="translate(0.000000,368.000000) scale(0.100000,-0.100000)"
fill="#000000" stroke="none">
<path d="M4605 3670 c-235 -16 -451 -74 -605 -160 -72 -41 -124 -100 -140
-159 -7 -27 -9 -522 -8 -1533 3 -1657 -3 -1516 69 -1586 67 -66 -22 -62 1523
-62 822 0 1428 4 1466 10 628 91 1063 705 920 1299 -59 244 -201 462 -400 613
-86 66 -264 152 -368 178 -160 40 -368 44 -507 10 -59 -14 -62 -13 -69 28 -10
53 -62 210 -101 303 -122 291 -366 580 -645 767 -332 221 -718 321 -1135 292z"/>
<path d="M3383 3170 c-18 -11 -35 -30 -37 -42 -4 -21 -22 -266 -46 -643 -32
-510 -41 -1185 -20 -1560 11 -195 43 -548 60 -652 16 -97 82 -133 139 -75 26
25 29 38 49 212 49 410 56 539 56 1080 1 307 -4 596 -12 715 -29 472 -64 902
-74 928 -9 25 -52 57 -75 57 -4 0 -23 -9 -40 -20z"/>
<path d="M2303 2905 c-24 -10 -34 -23 -42 -52 -10 -34 -32 -291 -61 -703 -18
-241 -24 -951 -11 -1190 16 -305 50 -643 71 -722 21 -77 97 -91 147 -28 12 16
44 242 62 450 51 559 41 1224 -29 1995 -18 191 -22 211 -42 231 -32 30 -57 35
-95 19z"/>
<path d="M2820 2805 c-26 -28 -38 -111 -65 -451 -50 -652 -44 -1273 19 -1906
24 -246 29 -260 86 -273 36 -8 88 18 99 48 8 21 30 214 51 437 56 614 46 1329
-29 1963 -16 136 -22 161 -41 182 -32 34 -88 34 -120 0z"/>
<path d="M1735 2645 c-14 -13 -25 -32 -25 -42 0 -10 -7 -74 -15 -143 -75 -636
-79 -1359 -9 -2010 21 -206 30 -245 59 -264 38 -25 80 -20 107 12 20 24 27 51
41 163 87 683 89 1385 6 2076 -10 89 -19 167 -19 173 0 6 -11 22 -25 35 -33
34 -87 34 -120 0z"/>
<path d="M648 2147 c-28 -26 -36 -59 -70 -307 -25 -187 -36 -672 -19 -916 15
-223 60 -613 72 -636 21 -38 127 -38 148 0 13 25 58 380 77 620 19 231 14 665
-10 852 -19 150 -45 307 -57 347 -20 63 -94 84 -141 40z"/>
<path d="M1193 2058 c-15 -16 -28 -56 -42 -130 -70 -364 -78 -778 -26 -1298
24 -230 46 -404 56 -421 4 -9 22 -22 39 -29 34 -14 84 0 100 29 10 19 53 360
76 606 19 206 22 614 5 775 -13 122 -45 325 -63 400 -15 62 -42 90 -88 90 -25
0 -43 -7 -57 -22z"/>
<path d="M109 1857 c-27 -21 -38 -50 -63 -178 -59 -291 -54 -581 15 -969 24
-134 40 -160 100 -160 59 0 72 25 108 212 47 249 55 319 55 508 0 189 -13 290
-61 460 -30 112 -51 140 -102 140 -20 0 -43 -6 -52 -13z"/>
</g>
</svg>
